General                          : ChattChitto RG - Movies
==========
Complete name                    : Lord Of War 2005 BDRip.MP4
Format                           : MPEG-4
Format profile                   : Base Media
Codec ID                         : isom
File size                        : 2.26 GiB
Duration                         : 2h 1mn
Overall bit rate                 : 2 654 Kbps
Encoded date                     : UTC 2010-03-16 16:53:02

Video
==========
ID                               : 1
Format                           : AVC
Format/Info                      : Advanced Video Codec
Format profile                   : High@L3.1
Format settings, CABAC           : Yes
Format settings, ReFrames        : 3 frames
Codec ID                         : avc1
Codec ID/Info                    : Advanced Video Coding
Duration                         : 2h 1mn
Bit rate mode                    : Variable
Bit rate                         : 2 300 Kbps
Maximum bit rate                 : 26.5 Mbps
Width                            : 1 280 pixels
Height                           : 528 pixels
Display aspect ratio             : 2.40:1
Frame rate mode                  : Constant
Frame rate                       : 23.976 fps
Resolution                       : 8 bits
Colorimetry                      : 4:2:0
Scan type                        : Progressive
Bits/(Pixel*Frame)               : 0.142
Stream size                      : 1.96 GiB (87%)
Writing library                  : x264 core 76 r1271 496d79d
Encoded date                     : UTC 2010-03-16 07:43:25

Audio
==========
ID                               : 2
Format                           : AAC
Format/Info                      : Advanced Audio Codec
Format version                   : Version 4
Format profile                   : LC
Format settings, SBR             : No
Codec ID                         : 40
Duration                         : 2h 1mn
Bit rate mode                    : Variable
Bit rate                         : 352.8 Kbps
Maximum bit rate                 : 456 Kbps
Channel(s)                       : 6 channels
Channel positions                : Front: L C R, Side: L R, LFE
Sampling rate                    : 48.0 KHz
Stream size                      : 305 MiB (13%)
Encoded date                     : UTC 2010-03-16 16:54:36

Subtitles                        : English | Spanish [.srt]



----------------------------------------------------
IMDB Link: http://www.imdb.com/title/tt0399295/
----------------------------------------------------


Screen Shots:
============== 
http://bayimg.com/FaLBiaAcF 
http://bayimg.com/falbkaaCF 
http://bayimg.com/fALblaAcF 
http://bayimg.com/faLBMAaCF 
http://bayimg.com/FalBnAAcf



Plot:
======
Chance leads Yuri Orlov to discover his one talent - illegal arms dealing. With his brother's help, he reaches the top of the trade, supplying anyone whose check clears. His skills and quick wits bring him everything he's ever wanted - and help him elude a persistent Interpol agent. But at the peak of his prowess, he discovers his customers might demand more than he can give...and those he's trying to protect could become deadly liabilities.


Release Info:
==============
original name .... : Lord Of War 2005 BDRip.MP4
ripper.............: Recalled2Life (R2L)
encoder............: Recalled2Life (R2L)
video codec........: H264/.MP4                   
video bitrate......: 2300 Kbps                           
audio codec........: AAC-LC	                                        
aspect ratio.......: 2.40:1                              
resolution.........: 1280 x 528                             
genre..............: Crime | Drama | Thriller
runtime............: 2h 1mn
language...........: English
subtitles..........: English | Spanish [.srt]
2ch Audio..........: 2ch Audio for XBox Viewers



Source:
========
Lord Of War 2005 Blu-Ray 1080p MPEG-2/DTS-HD Master Audio 5.1 [21.0 GB]


Notes:
=======
ChattChitto RG Encourages Burning this Film with ConvertXtoDVD.
Enhanced and Filtered for your viewing pleasure ;)